<svg xmlns="http://www.w3.org/2000/svg" viewBox="0 0 220 64">
<defs><linearGradient id="g" x1="0" y1="0" x2="1" y2="1"><stop stop-color="#36b7ff"/><stop offset=".55" stop-color="#6870ff"/><stop offset="1" stop-color="#a05cff"/></linearGradient></defs>
<rect width="64" height="64" rx="16" fill="#0b1730"/>
<path d="M13 47 22 17h8l6 18 7-18h8l-9 30h-8l-6-18-5 18z" fill="url(#g)"/>
<path d="M42 17h10c10 0 15 5 15 12 0 5-3 9-8 11l9 7H57l-8-8h-1v8h-6zm6 7v9h3c4 0 6-2 6-5s-2-4-6-4z" fill="#f1f5ff"/>
<text x="76" y="29" fill="#f4f7ff" font-family="Arial, sans-serif" font-size="17" font-weight="700">Rafaqatedits</text>
<text x="76" y="47" fill="#8d72ff" font-family="Arial, sans-serif" font-size="15" font-weight="700">AI</text>
</svg>